<?xml version="1.0" encoding="UTF-8" standalone="no"?>
<!-- Created with Inkscape (http://www.inkscape.org/) -->

<svg
   width="500mm"
   height="500mm"
   viewBox="0 0 500 500"
   version="1.1"
   id="svg1"
   xml:space="preserve"
   inkscape:version="1.3.2 (091e20e, 2023-11-25, custom)"
   sodipodi:docname="logo-vertical.svg"
   inkscape:export-filename="logo-vertical.png"
   inkscape:export-xdpi="25.4"
   inkscape:export-ydpi="25.4"
   xmlns:inkscape="http://www.inkscape.org/namespaces/inkscape"
   xmlns:sodipodi="http://sodipodi.sourceforge.net/DTD/sodipodi-0.dtd"
   xmlns="http://www.w3.org/2000/svg"
   xmlns:svg="http://www.w3.org/2000/svg"><sodipodi:namedview
     id="namedview1"
     pagecolor="#ffffff"
     bordercolor="#000000"
     borderopacity="0.25"
     inkscape:showpageshadow="2"
     inkscape:pageopacity="0.0"
     inkscape:pagecheckerboard="0"
     inkscape:deskcolor="#d1d1d1"
     inkscape:document-units="mm"
     showguides="true"
     showgrid="false"
     inkscape:zoom="0.17291529"
     inkscape:cx="404.8225"
     inkscape:cy="812.53658"
     inkscape:window-width="1366"
     inkscape:window-height="745"
     inkscape:window-x="-8"
     inkscape:window-y="-8"
     inkscape:window-maximized="1"
     inkscape:current-layer="layer2"><sodipodi:guide
       position="51.663934,228.96721"
       orientation="0,-1"
       id="guide5"
       inkscape:locked="false" /><sodipodi:guide
       position="62.735441,273.92289"
       orientation="0,-1"
       id="guide6"
       inkscape:locked="false" /><inkscape:grid
       id="grid6"
       units="mm"
       originx="0"
       originy="0"
       spacingx="0.99999999"
       spacingy="0.99999999"
       empcolor="#0099e5"
       empopacity="0.30196078"
       color="#0099e5"
       opacity="0.14901961"
       empspacing="5"
       dotted="false"
       gridanglex="30"
       gridanglez="30"
       visible="false" /><sodipodi:guide
       position="97.385724,318.87856"
       orientation="0,-1"
       id="guide8"
       inkscape:locked="false" /><sodipodi:guide
       position="241.95491,124.15165"
       orientation="0,-1"
       id="guide7"
       inkscape:locked="false" /><sodipodi:guide
       position="252.70696,213.81968"
       orientation="0,-1"
       id="guide9"
       inkscape:locked="false" /><sodipodi:guide
       position="270.62704,169.18853"
       orientation="0,-1"
       id="guide10"
       inkscape:locked="false" /></sodipodi:namedview><defs
     id="defs1" /><g
     id="layer2"
     inkscape:label="Capa 2"
     style="display:inline;opacity:1"
     inkscape:groupmode="layer"><path
       id="rect1"
       style="fill:#078930;fill-opacity:1;stroke:#078930;stroke-width:0.617123;stroke-opacity:1"
       d="m 111.95338,210.28531 c 0,0 -2.46662,-21.74151 22.53745,-21.89675 8.07221,-0.0501 10.38684,-5.71061 10.42216,-10.80311 0.0362,-5.21482 -2.51828,-11.25568 -10.51796,-11.22053 -7.00579,0.0308 -21.3029,-1.64643 -28.25241,-5.90193 -5.102,-3.12417 -5.98063,-9.17887 -5.98063,-9.17887 0,0 3.69757,3.57469 14.17386,3.45117 l 14.77468,-0.17423 c 5.49063,-0.0648 15.25137,0.35803 20.64466,5.1038 4.76424,4.19225 7.59909,11.45271 7.2526,17.92059 -0.40494,7.5592 -3.16842,16.06046 -10.66127,19.84276 -1.96092,0.98986 10.08796,5.78963 10.33772,23.08148 l 0.34404,23.82026 h -11.3876 l -0.56197,-22.21278 -0.42743,-2.84027 c -0.91029,-6.04904 -3.84557,-15.49737 -11.80303,-16.00832 -9.4683,0 -9.50726,6.93855 -9.50726,6.93855 v 22.41535 c 0,8.8828 -11.38761,11.70741 -11.38761,11.70741 z"
       sodipodi:nodetypes="csasscssaasscccsscscc"
       inkscape:label="R" /><path
       id="circle9"
       style="fill:#fcdd09;fill-opacity:1;stroke:#fcdd09;stroke-width:0.625177;stroke-opacity:1"
       inkscape:label="o"
       d="m 182.82079,198.95715 c -11.79202,2e-5 -21.35134,9.9226 -21.35136,22.16271 2e-5,12.24013 9.55933,22.1627 21.35136,22.16272 11.79204,-2e-5 21.35135,-9.92259 21.35137,-22.16272 -0.005,-4.55179 -1.07869,-8.16286 -3.28261,-11.21993 -1.39394,-1.93353 -3.23991,-3.64544 -5.55325,-5.23358 l -6.46208,7.63861 c 3.13651,2.72967 4.22392,4.58047 4.24059,8.8149 6e-5,5.90129 -4.60877,10.68525 -10.29402,10.6852 -5.68526,6e-5 -10.29409,-4.7839 -10.29403,-10.6852 -5e-5,-5.90129 4.60878,-10.68525 10.29403,-10.68519 8.52803,0.14942 11.07977,-11.79593 11.07977,-11.79593 z"
       sodipodi:nodetypes="csscscccccccc" /><path
       id="path20"
       style="display:inline;fill:#dd121a;fill-opacity:1;stroke:#dd121a;stroke-width:0.361569;stroke-opacity:1"
       inkscape:label="s"
       d="m 210.67877,212.7289 c -0.1175,4.01972 16.7418,12.77079 21.61332,15.22845 1.33509,0.67355 -2.19182,-1.2484 -5.74178,-3.17135 -3.0576,-1.65625 -6.1323,-3.31325 -6.1323,-3.31325 0,0 9.42873,4.40794 9.67763,8.86674 0.10588,1.89675 -1.85754,3.97174 -3.66955,4.24018 -5.6563,0.83795 -6.52847,-4.79759 -10.0244,-6.79606 -1.83481,-1.04888 -5.71655,-2.70866 -5.71655,-2.70866 l 0.17739,6.65143 c 1e-5,7.07902 9.30774,12.81771 16.12761,12.81772 6.81988,-10e-6 13.98353,-6.31647 14.1729,-12.81772 0.17743,-6.09179 -13.89653,-14.01331 -20.7164,-14.01332 0.58909,0.11436 11.26987,3.93483 12.30118,4.05955 0,0 -10.79936,-3.32597 -11.00165,-7.96158 -0.0766,-1.75585 2.19576,-3.31693 3.88743,-3.39436 3.91271,-0.1791 6.11424,5.19121 9.62223,6.99897 1.85021,0.95345 4.81521,2.01059 5.90088,1.96469 l -0.17739,-6.65143 c -2e-5,-7.07902 -7.35302,-12.81771 -14.1729,-12.81772 -6.81987,1e-5 -16.30508,6.3536 -16.12761,12.81772 0,1e-5 -4e-5,0 -4e-5,0 z"
       sodipodi:nodetypes="ssscasaccssscaaasccss" /><path
       id="path18"
       style="display:inline;fill:#ff7f2a;fill-opacity:1;stroke:#ff7f2a;stroke-width:0.652547;stroke-opacity:1"
       d="m 279.49894,241.31128 c 0,0 2.15571,-1.38475 1.59028,-0.78517 4.64439,4.03156 8.26314,4.03156 13.55969,4.03156 0,0 -4.26185,-3.85086 -4.26185,-16.70539 v -27.95467 h -10.95327 v 2.90982 c -3.17662,-1.86899 -6.76215,-2.86056 -10.41353,-2.87984 -11.7846,3e-5 -21.33789,9.91634 -21.33793,22.14875 3e-5,12.23241 9.55332,22.14873 21.33793,22.14876 3.65138,-0.0193 10.47868,-2.91382 10.47868,-2.91382 m -10.47868,-30.0142 c 5.73528,1e-5 10.38463,4.82604 10.38465,10.77926 -10e-6,5.95321 -4.64937,10.77925 -10.38465,10.77926 -5.73528,-1e-5 -10.38465,-4.82605 -10.38466,-10.77926 2e-5,-5.95322 4.64938,-10.77925 10.38466,-10.77926 z"
       sodipodi:nodetypes="cccscccccccsssss"
       inkscape:label="a" /><path
       id="rect22"
       style="display:inline;fill:#dd121a;fill-opacity:1;stroke:#dd121a;stroke-width:0.594002;stroke-opacity:1"
       d="m 301.81598,199.96672 c 14.14258,-0.53628 10.78918,-0.37151 10.95331,7.03732 0,0 -2.94867,-7.40883 15.6243,-7.5736 0,0 -15.6243,7.5736 -15.6243,30.55802 v 14.33552 h -10.95331 z"
       inkscape:label="r"
       sodipodi:nodetypes="csssccc" /><path
       id="rect19"
       style="display:inline;fill:#ff7f2a;stroke:#ff7f2a;stroke-width:0.594002;stroke-opacity:1"
       inkscape:label="i"
       d="m 344.32822,181.36365 -3.24546,0.093 c -3.45413,0 -6.25439,2.90665 -6.25439,6.49205 0,3.58539 2.80026,6.49205 6.25439,6.49206 3.45414,-1e-5 6.2544,-2.90667 6.2544,-6.49206 -9.6e-4,-1.33332 -0.3159,-2.39112 -0.96148,-3.2866 -0.40831,-0.56637 -0.9491,-1.06775 -1.62672,-1.53295 l -1.89309,2.23741 c 0.91875,0.79956 1.23743,1.34179 1.24231,2.58214 10e-6,1.72861 -1.35009,3.13001 -3.01542,3.13 -1.66533,2e-5 -3.01542,-1.40139 -3.0154,-3.13 -1e-5,-1.72862 1.35008,-3.13002 3.0154,-3.13 2.49805,0.0437 3.24546,-3.45508 3.24546,-3.45508 z m -8.72209,18.3696 0.36846,33.15233 c 0.12977,11.67214 14.21665,11.67185 14.21665,11.67185 -1.34359,-1.30107 -3.63184,-6.4489 -3.63184,-13.35366 v -31.47052 z" /><path
       id="path16"
       style="fill:#fcdd09;fill-opacity:1;stroke:#fcdd09;stroke-width:0.625177;stroke-opacity:1"
       inkscape:label="o"
       d="m 378.60916,199.91376 c -11.79202,2e-5 -21.35135,9.92259 -21.35137,22.16271 2e-5,12.24012 9.55934,22.1627 21.35137,22.16272 11.79204,-2e-5 21.35135,-9.9226 21.35137,-22.16272 -0.005,-4.5518 -1.07869,-8.16286 -3.28261,-11.21993 -1.39394,-1.93353 -3.2399,-3.64544 -5.55325,-5.23358 l -6.46208,7.63861 c 3.13651,2.72966 4.22392,4.58046 4.2406,8.8149 5e-5,5.90129 -4.60877,10.68525 -10.29403,10.6852 -5.68526,6e-5 -10.29409,-4.7839 -10.29403,-10.6852 -5e-5,-5.90129 4.60878,-10.68525 10.29403,-10.68519 8.52803,0.14941 11.07977,-11.79594 11.07977,-11.79594 z"
       sodipodi:nodetypes="csscscccccccc" /><path
       id="path2"
       style="display:inline;fill:#dd121a;fill-opacity:1;stroke:#dd121a;stroke-width:0.622853;stroke-opacity:1"
       inkscape:label="3"
       d="m 180.04969,260.07684 v 11.32723 l 30.42145,-0.41464 -17.93199,23.60477 -0.0379,9.88933 c -0.0217,5.66881 21.3935,8.65395 18.97989,24.11639 -0.77324,4.95373 -6.05071,9.82873 -11.65318,8.96374 -5.60251,-0.86488 -9.46892,-6.28064 -8.63561,-12.096 1.39178,-8.70132 -10.74311,-13.19676 -10.74311,-13.19676 l -0.15306,11.51452 c -1.72831,12.06192 6.29077,23.29445 17.91111,25.08848 11.62036,1.79397 22.77173,-8.28468 24.17004,-18.59174 2.09711,-15.45798 -6.2944,-22.68361 -18.92566,-32.39216 l 19.17223,-26.48593 v -11.32723 z"
       sodipodi:nodetypes="ccccssccccsscccc" /><path
       id="path22"
       style="display:inline;fill:#fcdd09;fill-opacity:1;stroke:#fcdd09;stroke-width:0.622853;stroke-opacity:1"
       inkscape:label="6"
       d="m 253.88442,305.14725 c 11.71917,0.85621 20.5508,11.4116 19.72594,23.57612 -0.82487,12.16452 -10.99383,21.33176 -22.71303,20.47553 -6.9577,-0.50834 -13.14142,-5.95963 -16.84515,-12.85106 -2.53465,-4.71618 -5.6569,-21.19735 -4.49621,-31.86428 1.28759,-11.83312 4.59553,-24.82418 12.45781,-33.30265 10.65741,-11.49264 29.09508,-11.49264 29.09508,-11.49264 0.0759,8.52583 -5.34687,10.35399 -5.34687,10.35399 -7.0711,1.92896 -10.61147,3.53698 -15.04239,6.7998 -1.6281,1.19889 -3.04268,2.77012 -4.02645,4.53655 -3.91103,7.02255 -6.42185,15.08127 -6.90457,23.10495 -0.56021,9.31169 2.8253,24.60438 4.7404,27.5812 3.91433,6.08441 5.8818,4.96873 8.85681,5.72752 5.65016,0.41285 10.5529,-4.00693 10.95053,-9.87179 0.39775,-5.86482 -5.57522,-10.95387 -11.22538,-11.36661 -8.48542,-0.47073 -10.21641,-12.52758 -10.21641,-12.52758 z"
       sodipodi:nodetypes="csssasssaaasccccc" /><path
       id="path1"
       style="fill:#078930;fill-opacity:1;stroke:#078930;stroke-width:0.622853;stroke-opacity:1"
       inkscape:label="0"
       d="m 299.96307,259.68827 c -16.94138,0 -21.29465,28.14812 -21.27199,44.79529 0.0225,16.55237 5.23941,44.75428 21.27199,44.47801 15.2515,-0.26281 21.23783,-27.55441 21.27199,-44.47801 0.0268,-13.2856 -1.61322,-29.0655 -8.61941,-35.6768 l -6.43804,7.61021 c 2.72791,2.37408 3.71643,17.96115 3.98124,25.56085 0.0385,1.10581 0.0579,1.96987 0.06,2.50574 5e-5,4.50174 -0.94127,19.74391 -5.20723,27.48654 -1.30546,2.36937 -2.92226,4.03644 -4.91869,4.4785 -7.72175,-1.0238 -10.14386,-23.62955 -10.36802,-30.9377 -0.012,-0.38722 -0.0175,-0.7315 -0.0175,-1.02734 -5e-5,-5.87935 -0.60155,-26.89186 10.38559,-31.87804 8.49632,0.14885 10.90875,-13.23448 10.90875,-13.23448 z"
       sodipodi:nodetypes="cassccscscscccc" /></g></svg>
