<?xml version="1.0" encoding="UTF-8" standalone="no"?>
<!-- Created with Inkscape (http://www.inkscape.org/) -->

<svg
   width="500mm"
   height="500mm"
   viewBox="0 0 500 500"
   version="1.1"
   id="svg1"
   xml:space="preserve"
   inkscape:version="1.3.2 (091e20e, 2023-11-25, custom)"
   sodipodi:docname="logo.svg"
   inkscape:export-filename="logo-rojo.png"
   inkscape:export-xdpi="25.4"
   inkscape:export-ydpi="25.4"
   xmlns:inkscape="http://www.inkscape.org/namespaces/inkscape"
   xmlns:sodipodi="http://sodipodi.sourceforge.net/DTD/sodipodi-0.dtd"
   xmlns="http://www.w3.org/2000/svg"
   xmlns:svg="http://www.w3.org/2000/svg"><sodipodi:namedview
     id="namedview1"
     pagecolor="#ffffff"
     bordercolor="#000000"
     borderopacity="0.25"
     inkscape:showpageshadow="2"
     inkscape:pageopacity="0.0"
     inkscape:pagecheckerboard="0"
     inkscape:deskcolor="#d1d1d1"
     inkscape:document-units="mm"
     showguides="true"
     showgrid="false"
     inkscape:zoom="0.25"
     inkscape:cx="468"
     inkscape:cy="758"
     inkscape:window-width="1366"
     inkscape:window-height="745"
     inkscape:window-x="-8"
     inkscape:window-y="-8"
     inkscape:window-maximized="1"
     inkscape:current-layer="layer2"><sodipodi:guide
       position="51.663934,228.96721"
       orientation="0,-1"
       id="guide5"
       inkscape:locked="false" /><sodipodi:guide
       position="62.735441,273.92289"
       orientation="0,-1"
       id="guide6"
       inkscape:locked="false" /><inkscape:grid
       id="grid6"
       units="mm"
       originx="0"
       originy="0"
       spacingx="0.99999999"
       spacingy="0.99999999"
       empcolor="#0099e5"
       empopacity="0.30196078"
       color="#0099e5"
       opacity="0.14901961"
       empspacing="5"
       dotted="false"
       gridanglex="30"
       gridanglez="30"
       visible="false" /><sodipodi:guide
       position="97.385724,318.87856"
       orientation="0,-1"
       id="guide8"
       inkscape:locked="false" /></sodipodi:namedview><defs
     id="defs1" /><g
     id="layer2"
     inkscape:label="Capa 2"
     style="display:inline;opacity:1"
     inkscape:groupmode="layer"><path
       id="rect1"
       style="fill:#dd121a;fill-opacity:1;stroke:#dd121a;stroke-width:0.617123;stroke-opacity:1"
       d="m 37.780352,262.6262 c 0,0 -2.466622,-21.74151 22.537449,-21.89675 8.072211,-0.0501 10.386833,-5.71061 10.422157,-10.80311 0.03617,-5.21482 -2.518275,-11.25568 -10.517957,-11.22053 -7.005792,0.0308 -21.302899,-1.64643 -28.252417,-5.90193 -5.101993,-3.12417 -5.980627,-9.17887 -5.980627,-9.17887 0,0 3.697572,3.57469 14.173861,3.45117 l 14.774678,-0.17423 c 5.490629,-0.0648 15.251369,0.35803 20.644662,5.1038 4.764244,4.19225 7.599088,11.45271 7.252603,17.92059 -0.404946,7.5592 -3.168421,16.06046 -10.661272,19.84276 -1.960917,0.98986 10.08796,5.78963 10.337715,23.08148 l 0.344048,23.82026 H 71.467644 l -0.56197,-22.21278 -0.427421,-2.84027 c -0.910295,-6.04904 -3.845574,-15.49737 -11.803034,-16.00832 -9.468297,0 -9.507259,6.93855 -9.507259,6.93855 v 22.41535 c 0,8.8828 -11.387608,11.70741 -11.387608,11.70741 z"
       sodipodi:nodetypes="csasscssaasscccsscscc"
       inkscape:label="R" /><path
       id="circle9"
       style="fill:#fcdd09;fill-opacity:1;stroke:#fcdd09;stroke-width:0.625177;stroke-opacity:1"
       inkscape:label="o"
       d="m 108.64776,251.29804 c -11.792025,2e-5 -21.351343,9.9226 -21.351362,22.16271 1.9e-5,12.24013 9.559327,22.1627 21.351362,22.16272 11.79204,-2e-5 21.35135,-9.92259 21.35137,-22.16272 -0.005,-4.55179 -1.07869,-8.16286 -3.28261,-11.21993 -1.39394,-1.93353 -3.23991,-3.64544 -5.55325,-5.23358 l -6.46208,7.63861 c 3.13651,2.72967 4.22392,4.58047 4.24059,8.8149 6e-5,5.90129 -4.60877,10.68525 -10.29402,10.6852 -5.68526,6e-5 -10.294089,-4.7839 -10.294031,-10.6852 -4.8e-5,-5.90129 4.608781,-10.68525 10.294031,-10.68519 8.52803,0.14942 11.07977,-11.79593 11.07977,-11.79593 z"
       sodipodi:nodetypes="csscscccccccc" /><path
       id="path20"
       style="display:inline;fill:#078930;fill-opacity:1;stroke:#078930;stroke-width:0.361569;stroke-opacity:1"
       inkscape:label="s"
       d="m 136.50574,265.06979 c -0.1175,4.01972 16.7418,12.77079 21.61332,15.22845 1.33509,0.67355 -2.19182,-1.2484 -5.74178,-3.17135 -3.0576,-1.65625 -6.1323,-3.31325 -6.1323,-3.31325 0,0 9.42873,4.40794 9.67763,8.86674 0.10588,1.89675 -1.85754,3.97174 -3.66955,4.24018 -5.6563,0.83795 -6.52847,-4.79759 -10.0244,-6.79606 -1.83481,-1.04888 -5.71655,-2.70866 -5.71655,-2.70866 l 0.17739,6.65143 c 1e-5,7.07902 9.30774,12.81771 16.12761,12.81772 6.81988,-1e-5 13.98353,-6.31647 14.1729,-12.81772 0.17743,-6.09179 -13.89653,-14.01331 -20.7164,-14.01332 0.58909,0.11436 11.26987,3.93483 12.30118,4.05955 0,0 -10.79936,-3.32597 -11.00165,-7.96158 -0.0766,-1.75585 2.19576,-3.31693 3.88743,-3.39436 3.91271,-0.1791 6.11424,5.19121 9.62223,6.99897 1.85021,0.95345 4.81521,2.01059 5.90088,1.96469 l -0.17739,-6.65143 c -2e-5,-7.07902 -7.35302,-12.81771 -14.1729,-12.81772 -6.81987,1e-5 -16.30508,6.3536 -16.12761,12.81772 0,10e-6 -4e-5,0 -4e-5,0 z"
       sodipodi:nodetypes="ssscasaccssscaaasccss" /><path
       id="path18"
       style="display:inline;fill:#ff7f2a;fill-opacity:1;stroke:#ff7f2a;stroke-width:0.652547;stroke-opacity:1"
       d="m 205.32591,293.65217 c 0,0 2.15571,-1.38475 1.59028,-0.78517 4.64439,4.03156 8.26314,4.03156 13.55969,4.03156 0,0 -4.26185,-3.85086 -4.26185,-16.70539 V 252.2385 h -10.95327 v 2.90982 c -3.17662,-1.86899 -6.76215,-2.86056 -10.41353,-2.87984 -11.7846,3e-5 -21.33789,9.91634 -21.33793,22.14875 3e-5,12.23241 9.55332,22.14873 21.33793,22.14876 3.65138,-0.0193 10.47868,-2.91382 10.47868,-2.91382 m -10.47868,-30.0142 c 5.73528,1e-5 10.38463,4.82604 10.38465,10.77926 -1e-5,5.95321 -4.64937,10.77925 -10.38465,10.77926 -5.73528,-10e-6 -10.38465,-4.82605 -10.38466,-10.77926 2e-5,-5.95322 4.64938,-10.77925 10.38466,-10.77926 z"
       sodipodi:nodetypes="cccscccccccsssss"
       inkscape:label="a" /><path
       id="rect22"
       style="display:inline;fill:#dd121a;fill-opacity:1;stroke:#dd121a;stroke-width:0.594002;stroke-opacity:1"
       d="m 227.64295,252.30761 c 14.14258,-0.53628 10.78918,-0.37151 10.95331,7.03732 0,0 -2.94867,-7.40883 15.6243,-7.5736 0,0 -15.6243,7.5736 -15.6243,30.55802 v 14.33552 h -10.95331 z"
       inkscape:label="r"
       sodipodi:nodetypes="csssccc" /><path
       id="rect19"
       style="display:inline;fill:#ff7f2a;stroke:#ff7f2a;stroke-width:0.594002;stroke-opacity:1"
       inkscape:label="i"
       d="m 270.15519,233.70454 -3.24546,0.093 c -3.45413,0 -6.25439,2.90665 -6.25439,6.49205 0,3.58539 2.80026,6.49205 6.25439,6.49206 3.45414,-1e-5 6.2544,-2.90667 6.2544,-6.49206 -9.6e-4,-1.33332 -0.3159,-2.39112 -0.96148,-3.2866 -0.40831,-0.56637 -0.9491,-1.06775 -1.62672,-1.53295 l -1.89309,2.23741 c 0.91875,0.79956 1.23743,1.34179 1.24231,2.58214 1e-5,1.72861 -1.35009,3.13001 -3.01542,3.13 -1.66533,2e-5 -3.01542,-1.40139 -3.0154,-3.13 -1e-5,-1.72862 1.35008,-3.13002 3.0154,-3.13 2.49805,0.0437 3.24546,-3.45508 3.24546,-3.45508 z m -8.72209,18.3696 0.36846,33.15233 c 0.12977,11.67214 14.21665,11.67185 14.21665,11.67185 -1.34359,-1.30107 -3.63184,-6.4489 -3.63184,-13.35366 v -31.47052 z" /><path
       id="path16"
       style="fill:#fcdd09;fill-opacity:1;stroke:#fcdd09;stroke-width:0.625177;stroke-opacity:1"
       inkscape:label="o"
       d="m 304.43613,252.25465 c -11.79202,2e-5 -21.35135,9.92259 -21.35137,22.16271 2e-5,12.24012 9.55934,22.1627 21.35137,22.16272 11.79204,-2e-5 21.35135,-9.9226 21.35137,-22.16272 -0.005,-4.5518 -1.07869,-8.16286 -3.28261,-11.21993 -1.39394,-1.93353 -3.2399,-3.64544 -5.55325,-5.23358 l -6.46208,7.63861 c 3.13651,2.72966 4.22392,4.58046 4.2406,8.8149 5e-5,5.90129 -4.60877,10.68525 -10.29403,10.6852 -5.68526,6e-5 -10.29409,-4.7839 -10.29403,-10.6852 -5e-5,-5.90129 4.60878,-10.68525 10.29403,-10.68519 8.52803,0.14941 11.07977,-11.79594 11.07977,-11.79594 z"
       sodipodi:nodetypes="csscscccccccc" /><path
       id="path2"
       style="display:inline;fill:#dd121a;fill-opacity:1;stroke:#dd121a;stroke-width:0.625177;stroke-opacity:1"
       inkscape:label="3"
       d="m 332.42104,207.36367 v 11.3695 l 30.53497,-0.41619 -17.99891,23.69286 -0.038,9.92623 c -0.0218,5.68996 21.47333,8.68624 19.05072,24.20638 -0.77613,4.97221 -6.07329,9.86541 -11.69667,8.99719 -5.62341,-0.86811 -9.50425,-6.30408 -8.66783,-12.14114 1.39697,-8.73379 -10.7832,-13.246 -10.7832,-13.246 l -0.15363,11.55748 c -1.73476,12.10693 6.31424,23.38138 17.97795,25.1821 11.66372,1.80067 22.8567,-8.31559 24.26023,-18.66111 2.10493,-15.51567 -6.31789,-22.76826 -18.99629,-32.51304 l 19.24374,-26.58476 v -11.3695 z"
       sodipodi:nodetypes="ccccssccccsscccc" /><path
       id="path22"
       style="display:inline;fill:#fcdd09;fill-opacity:1;stroke:#fcdd09;stroke-width:0.625177;stroke-opacity:1"
       inkscape:label="6"
       d="m 406.53129,252.60226 c 11.7629,0.85941 20.62748,11.45419 19.79955,23.6641 -0.82795,12.20991 -11.03486,21.41136 -22.79779,20.55194 -6.98366,-0.51024 -13.19046,-5.98187 -16.90801,-12.89902 -2.54411,-4.73378 -5.67801,-21.27645 -4.51299,-31.98318 1.2924,-11.87728 4.61268,-24.91681 12.5043,-33.42692 10.69718,-11.53553 29.20365,-11.53553 29.20365,-11.53553 0.0762,8.55765 -5.36682,10.39263 -5.36682,10.39263 -7.09749,1.93616 -10.65107,3.55018 -15.09852,6.82517 -1.63418,1.20337 -3.05404,2.78046 -4.04148,4.55348 -3.92562,7.04876 -6.44581,15.13755 -6.93033,23.19117 -0.5623,9.34644 2.83584,24.69619 4.75809,27.68412 3.92893,6.10711 5.90375,4.98727 8.88986,5.74889 5.67124,0.41439 10.59228,-4.02188 10.99139,-9.90863 0.39923,-5.8867 -5.59603,-10.99474 -11.26727,-11.40902 -8.51708,-0.47249 -10.25453,-12.57433 -10.25453,-12.57433 z"
       sodipodi:nodetypes="csssasssaaasccccc" /><path
       id="path1"
       style="fill:#078930;fill-opacity:1;stroke:#078930;stroke-width:0.625177;stroke-opacity:1"
       inkscape:label="0"
       d="m 452.78188,206.97365 c -17.0046,0 -21.37411,28.25316 -21.35137,44.96245 0.0226,16.61413 5.25897,44.92128 21.35137,44.64398 15.30841,-0.26379 21.31708,-27.65723 21.35137,-44.64398 0.0269,-13.33518 -1.61924,-29.17396 -8.65157,-35.80993 l -6.46207,7.63861 c 2.73809,2.38293 3.7303,18.02817 3.9961,25.65623 0.0386,1.10993 0.0581,1.97722 0.0602,2.51509 5e-5,4.51854 -0.94478,19.81758 -5.22666,27.58911 -1.31033,2.37821 -2.93316,4.0515 -4.93704,4.49521 -7.75057,-1.02762 -10.18172,-23.71773 -10.40671,-31.05315 -0.012,-0.38866 -0.0176,-0.73423 -0.0176,-1.03117 -5e-5,-5.90129 -0.60379,-26.99221 10.42435,-31.997 8.52802,0.14941 10.94945,-13.28386 10.94945,-13.28386 z"
       sodipodi:nodetypes="cassccscscscccc" /></g></svg>
