<?xml version="1.0" encoding="UTF-8" standalone="no"?>
<!-- Created with Inkscape (http://www.inkscape.org/) -->

<svg
   width="500mm"
   height="500mm"
   viewBox="0 0 500 500"
   version="1.1"
   id="svg1"
   xml:space="preserve"
   inkscape:version="1.3.2 (091e20e, 2023-11-25, custom)"
   sodipodi:docname="logo-corto.svg"
   inkscape:export-filename="logo-corto.png"
   inkscape:export-xdpi="25.4"
   inkscape:export-ydpi="25.4"
   xmlns:inkscape="http://www.inkscape.org/namespaces/inkscape"
   xmlns:sodipodi="http://sodipodi.sourceforge.net/DTD/sodipodi-0.dtd"
   xmlns="http://www.w3.org/2000/svg"
   xmlns:svg="http://www.w3.org/2000/svg"><sodipodi:namedview
     id="namedview1"
     pagecolor="#ffffff"
     bordercolor="#000000"
     borderopacity="0.25"
     inkscape:showpageshadow="2"
     inkscape:pageopacity="0.0"
     inkscape:pagecheckerboard="0"
     inkscape:deskcolor="#d1d1d1"
     inkscape:document-units="mm"
     showguides="true"
     showgrid="false"
     inkscape:zoom="0.24453915"
     inkscape:cx="249.44881"
     inkscape:cy="885.33881"
     inkscape:window-width="1366"
     inkscape:window-height="745"
     inkscape:window-x="-8"
     inkscape:window-y="-8"
     inkscape:window-maximized="1"
     inkscape:current-layer="layer2"><sodipodi:guide
       position="51.663934,228.96721"
       orientation="0,-1"
       id="guide5"
       inkscape:locked="false" /><sodipodi:guide
       position="62.735441,273.92289"
       orientation="0,-1"
       id="guide6"
       inkscape:locked="false" /><inkscape:grid
       id="grid6"
       units="mm"
       originx="0"
       originy="0"
       spacingx="0.99999999"
       spacingy="0.99999999"
       empcolor="#0099e5"
       empopacity="0.30196078"
       color="#0099e5"
       opacity="0.14901961"
       empspacing="5"
       dotted="false"
       gridanglex="30"
       gridanglez="30"
       visible="false" /><sodipodi:guide
       position="97.385724,318.87856"
       orientation="0,-1"
       id="guide8"
       inkscape:locked="false" /></sodipodi:namedview><defs
     id="defs1" /><g
     id="layer2"
     inkscape:label="Capa 2"
     style="display:inline;opacity:1"
     inkscape:groupmode="layer"><path
       id="rect1"
       style="fill:#078930;fill-opacity:1;stroke:#078930;stroke-width:0.619113;stroke-opacity:1"
       d="m 158.00787,262.61219 c 0,0 -2.48861,-21.68858 22.73838,-21.84345 8.14417,-0.05 10.47943,-5.6967 10.51506,-10.77681 0.0365,-5.20213 -2.54072,-11.22828 -10.61172,-11.19322 -7.06825,0.0306 -21.49281,-1.64241 -28.50429,-5.88756 -5.14748,-3.11657 -6.03395,-9.15653 -6.03395,-9.15653 0,0 3.73054,3.56599 14.30023,3.44277 l 14.90639,-0.1738 c 5.53958,-0.0646 15.38734,0.35715 20.82872,5.09137 4.80671,4.18205 7.66683,11.42484 7.31726,17.87697 -0.40856,7.5408 -3.19667,16.02136 -10.75632,19.79446 -1.9784,0.98744 10.17789,5.77553 10.42987,23.0253 l 0.34712,23.76227 h -11.48913 l -0.56698,-22.15871 -0.43123,-2.83335 c -0.91841,-6.03432 -3.87985,-15.45966 -11.90826,-15.96936 -9.55271,0 -9.59201,6.92166 -9.59201,6.92166 v 22.36079 c 0,8.86117 -11.48914,11.67891 -11.48914,11.67891 z"
       sodipodi:nodetypes="csasscssaasscccsscscc"
       inkscape:label="R" /><path
       id="path2"
       style="display:inline;fill:#dd121a;fill-opacity:1;stroke:#dd121a;stroke-width:0.625177;stroke-opacity:1"
       inkscape:label="3"
       d="m 211.77139,207.26855 v 11.3695 l 30.53497,-0.41619 -17.99891,23.69286 -0.038,9.92623 c -0.0218,5.68996 21.47333,8.68624 19.05072,24.20638 -0.77613,4.97221 -6.07329,9.86541 -11.69667,8.99719 -5.62341,-0.86811 -9.50425,-6.30408 -8.66783,-12.14114 1.39697,-8.73379 -10.7832,-13.246 -10.7832,-13.246 l -0.15363,11.55748 c -1.73476,12.10693 6.31424,23.38138 17.97795,25.1821 11.66372,1.80067 22.8567,-8.31559 24.26023,-18.66111 2.10493,-15.51567 -6.31789,-22.76826 -18.99629,-32.51304 l 19.24374,-26.58476 v -11.3695 z"
       sodipodi:nodetypes="ccccssccccsscccc" /><path
       id="path22"
       style="display:inline;fill:#fcdd09;fill-opacity:1;stroke:#fcdd09;stroke-width:0.625177;stroke-opacity:1"
       inkscape:label="6"
       d="m 285.88164,252.50714 c 11.7629,0.85941 20.62748,11.45419 19.79955,23.6641 -0.82795,12.20991 -11.03486,21.41136 -22.79779,20.55194 -6.98366,-0.51024 -13.19046,-5.98187 -16.90801,-12.89902 -2.54411,-4.73378 -5.67801,-21.27645 -4.51299,-31.98318 1.2924,-11.87728 4.61268,-24.91681 12.5043,-33.42692 10.69718,-11.53553 29.20365,-11.53553 29.20365,-11.53553 0.0762,8.55765 -5.36682,10.39263 -5.36682,10.39263 -7.09749,1.93616 -10.65107,3.55018 -15.09852,6.82517 -1.63418,1.20337 -3.05404,2.78046 -4.04148,4.55348 -3.92562,7.04876 -6.44581,15.13755 -6.93033,23.19117 -0.5623,9.34644 2.83584,24.69619 4.75809,27.68412 3.92893,6.10711 5.90375,4.98727 8.88986,5.74889 5.67124,0.41439 10.59228,-4.02188 10.99139,-9.90863 0.39923,-5.8867 -5.59603,-10.99474 -11.26727,-11.40902 -8.51708,-0.47249 -10.25453,-12.57433 -10.25453,-12.57433 z"
       sodipodi:nodetypes="csssasssaaasccccc" /><path
       id="path1"
       style="fill:#078930;fill-opacity:1;stroke:#078930;stroke-width:0.625177;stroke-opacity:1"
       inkscape:label="0"
       d="m 332.6614,206.87853 c -17.0046,0 -21.37411,28.25316 -21.35137,44.96245 0.0226,16.61413 5.25897,44.92128 21.35137,44.64398 15.30841,-0.26379 21.31708,-27.65723 21.35137,-44.64398 0.0269,-13.33518 -1.61924,-29.17396 -8.65157,-35.80993 l -6.46207,7.63861 c 2.73809,2.38293 3.7303,18.02817 3.9961,25.65623 0.0386,1.10993 0.0581,1.97722 0.0602,2.51509 5e-5,4.51854 -0.94478,19.81758 -5.22666,27.58911 -1.31033,2.37821 -2.93316,4.0515 -4.93704,4.49521 -7.75057,-1.02762 -10.18172,-23.71773 -10.40671,-31.05315 -0.012,-0.38866 -0.0176,-0.73423 -0.0176,-1.03117 -5e-5,-5.90129 -0.60379,-26.99221 10.42435,-31.997 8.52802,0.14941 10.94945,-13.28386 10.94945,-13.28386 z"
       sodipodi:nodetypes="cassccscscscccc" /></g></svg>
